<?xml version="1.0" encoding="utf-8"?>
<!-- Generator: Adobe Illustrator 15.0.2, SVG Export Plug-In  -->
<!DOCTYPE svg PUBLIC "-//W3C//DTD SVG 1.1//EN" "http://www.w3.org/Graphics/SVG/1.1/DTD/svg11.dtd" [
	<!ENTITY ns_flows "http://ns.adobe.com/Flows/1.0/">
]>
<svg version="1.1"
	 xmlns="http://www.w3.org/2000/svg" xmlns:xlink="http://www.w3.org/1999/xlink" xmlns:a="http://ns.adobe.com/AdobeSVGViewerExtensions/3.0/"
	 x="0px" y="0px" width="600px" height="600px" viewBox="0 0 600 600" overflow="visible" enable-background="new 0 0 600 600"
	 xml:space="preserve">
<defs>
</defs>
<g>
	<defs>
		<rect id="SVGID_1_" width="600" height="600"/>
	</defs>
	<clipPath id="SVGID_4_">
		<use xlink:href="#SVGID_1_"  overflow="visible"/>
	</clipPath>
	<g clip-path="url(#SVGID_4_)">
		<defs>
			<rect id="SVGID_3_" width="600" height="600"/>
		</defs>
		<clipPath id="SVGID_5_">
			<use xlink:href="#SVGID_3_"  overflow="visible"/>
		</clipPath>
		<g opacity="0.3" clip-path="url(#SVGID_5_)">
			<g>
				<path d="M310.275,415.688c14.08-16.867,25.685-36.087,34.137-57.217l7.496-18.701l29.313,73.285l71.993-0.019l-65.269-163.173
					l36.037-89.905L552,480.001H336L310.275,415.688"/>
			</g>
		</g>
		<g opacity="0.4" clip-path="url(#SVGID_5_)">
			<g>
				<polygon points="262.509,296.271 299.254,208.136 264,120 228.542,211.354 				"/>
			</g>
		</g>
		<g opacity="0.4" clip-path="url(#SVGID_5_)">
			<g>
				<path d="M297.699,384.248l12.576,31.439c14.08-16.866,25.685-36.087,34.137-57.218l7.496-18.7L336,300l-18.588,46.47
					C312.052,359.869,305.42,372.497,297.699,384.248"/>
			</g>
		</g>
		<path clip-path="url(#SVGID_5_)" fill="#905502" d="M336,120L336,120z"/>
		<g opacity="0.4" clip-path="url(#SVGID_5_)">
			<g>
				<polygon points="387.945,249.864 423.983,159.958 408,120 372,210 				"/>
			</g>
		</g>
		<g opacity="0.1" clip-path="url(#SVGID_5_)">
			<g>
				<path d="M408,120h-40h-32l-83.581,200.473c-10.612,26.53-28.728,49.021-52.39,65.04c-14.459,9.789-30.395,16.76-47.122,20.699
					L264,120h-40h-32L48,480h72.184c72.428,0,138.766-36.775,177.515-95.752c7.721-11.751,14.353-24.378,19.713-37.778L408,120z"/>
			</g>
		</g>
	</g>
	<g clip-path="url(#SVGID_4_)">
		<defs>
			<rect id="SVGID_2_" width="600" height="600"/>
		</defs>
		<clipPath id="SVGID_6_">
			<use xlink:href="#SVGID_2_"  overflow="visible"/>
		</clipPath>
	</g>
</g>
</svg>
